<svg xmlns="http://www.w3.org/2000/svg" viewBox="0 0 1254 1254"><g fill="black" fill-rule="evenodd"><path d="M 951 373 L 927 357 L 895 342 L 857 331 L 833 327 L 791 326 L 756 332 L 724 342 L 667 365 L 642 372 L 630 372 L 613 368 L 558 346 L 520 334 L 497 330 L 463 330 L 422 338 L 399 346 L 374 358 L 352 372 L 338 383 L 309 412 L 290 438 L 272 471 L 257 511 L 251 535 L 245 574 L 243 602 L 244 647 L 251 702 L 263 754 L 276 795 L 288 825 L 308 866 L 330 903 L 355 939 L 387 978 L 407 998 L 423 1011 L 440 1022 L 455 1029 L 477 1035 L 494 1036 L 523 1032 L 548 1024 L 574 1012 L 594 1005 L 614 1000 L 639 997 L 669 998 L 694 1003 L 710 1008 L 752 1026 L 771 1032 L 788 1035 L 815 1035 L 843 1028 L 868 1015 L 893 995 L 915 972 L 947 931 L 981 878 L 1004 831 L 1018 791 L 1018 788 L 993 776 L 969 760 L 955 748 L 933 724 L 919 704 L 908 683 L 901 665 L 893 631 L 891 611 L 892 572 L 899 538 L 906 519 L 919 494 L 943 462 L 966 440 L 994 420 L 991 414 L 978 398 Z"/><path d="M 823 105 L 811 105 L 787 110 L 759 120 L 739 130 L 706 153 L 679 180 L 669 193 L 654 217 L 643 240 L 633 274 L 630 298 L 631 318 L 633 324 L 662 323 L 680 319 L 702 311 L 720 302 L 742 287 L 754 277 L 776 254 L 801 217 L 811 196 L 818 176 L 825 141 L 825 112 Z"/></g></svg>